<mxfile host="app.diagrams.net" modified="2022-03-29T08:03:56.306Z" agent="5.0 (Windows NT 10.0; Win64; x64) AppleWebKit/537.36 (KHTML, like Gecko) Chrome/99.0.4844.82 Safari/537.36" etag="Fe03jLlOJxmC-ZNIhA66" version="17.2.4" type="github">
  <diagram id="IKvp0dctUp1kRReiO2hB" name="Page-1">
    <mxGraphModel dx="1108" dy="450" grid="1" gridSize="10" guides="1" tooltips="1" connect="1" arrows="1" fold="1" page="1" pageScale="1" pageWidth="827" pageHeight="1169" math="0" shadow="0">
      <root>
        <mxCell id="0" />
        <mxCell id="1" parent="0" />
        <mxCell id="s-jeWSVwhlc8Lse-MR7u-1" value="" style="ellipse;html=1;shape=startState;fillColor=#000000;strokeColor=#ff0000;" parent="1" vertex="1">
          <mxGeometry x="395" y="70" width="30" height="30" as="geometry" />
        </mxCell>
        <mxCell id="s-jeWSVwhlc8Lse-MR7u-2" value="" style="edgeStyle=orthogonalEdgeStyle;html=1;verticalAlign=bottom;endArrow=open;endSize=8;strokeColor=#ff0000;rounded=0;entryX=0.5;entryY=0;entryDx=0;entryDy=0;" parent="1" source="s-jeWSVwhlc8Lse-MR7u-1" target="s-jeWSVwhlc8Lse-MR7u-6" edge="1">
          <mxGeometry relative="1" as="geometry">
            <mxPoint x="410" y="140" as="targetPoint" />
          </mxGeometry>
        </mxCell>
        <mxCell id="s-jeWSVwhlc8Lse-MR7u-3" value="code juste" style="rhombus;whiteSpace=wrap;html=1;fillColor=#ffffc0;strokeColor=#ff0000;" parent="1" vertex="1">
          <mxGeometry x="380" y="380" width="80" height="40" as="geometry" />
        </mxCell>
        <mxCell id="s-jeWSVwhlc8Lse-MR7u-4" value="no" style="edgeStyle=orthogonalEdgeStyle;html=1;align=left;verticalAlign=bottom;endArrow=open;endSize=8;strokeColor=#ff0000;rounded=0;entryX=0.5;entryY=0;entryDx=0;entryDy=0;" parent="1" source="s-jeWSVwhlc8Lse-MR7u-3" target="s-jeWSVwhlc8Lse-MR7u-14" edge="1">
          <mxGeometry x="-1" relative="1" as="geometry">
            <mxPoint x="570" y="490" as="targetPoint" />
            <Array as="points">
              <mxPoint x="490" y="400" />
              <mxPoint x="490" y="510" />
              <mxPoint x="590" y="510" />
              <mxPoint x="590" y="280" />
            </Array>
          </mxGeometry>
        </mxCell>
        <mxCell id="s-jeWSVwhlc8Lse-MR7u-5" value="yes" style="edgeStyle=orthogonalEdgeStyle;html=1;align=left;verticalAlign=top;endArrow=open;endSize=8;strokeColor=#ff0000;rounded=0;entryX=0.5;entryY=0;entryDx=0;entryDy=0;" parent="1" source="s-jeWSVwhlc8Lse-MR7u-3" target="s-jeWSVwhlc8Lse-MR7u-20" edge="1">
          <mxGeometry x="-1" relative="1" as="geometry">
            <mxPoint x="220" y="510" as="targetPoint" />
          </mxGeometry>
        </mxCell>
        <mxCell id="s-jeWSVwhlc8Lse-MR7u-6" value="inserer la carte" style="rounded=1;whiteSpace=wrap;html=1;arcSize=40;fontColor=#000000;fillColor=#ffffc0;strokeColor=#ff0000;" parent="1" vertex="1">
          <mxGeometry x="360" y="160" width="120" height="40" as="geometry" />
        </mxCell>
        <mxCell id="s-jeWSVwhlc8Lse-MR7u-7" value="" style="edgeStyle=orthogonalEdgeStyle;html=1;verticalAlign=bottom;endArrow=open;endSize=8;strokeColor=#ff0000;rounded=0;" parent="1" source="s-jeWSVwhlc8Lse-MR7u-6" edge="1">
          <mxGeometry relative="1" as="geometry">
            <mxPoint x="420" y="260" as="targetPoint" />
          </mxGeometry>
        </mxCell>
        <mxCell id="s-jeWSVwhlc8Lse-MR7u-11" value="Entrer le code secre" style="rounded=1;whiteSpace=wrap;html=1;arcSize=40;fontColor=#000000;fillColor=#ffffc0;strokeColor=#ff0000;" parent="1" vertex="1">
          <mxGeometry x="360" y="260" width="120" height="40" as="geometry" />
        </mxCell>
        <mxCell id="s-jeWSVwhlc8Lse-MR7u-12" value="" style="edgeStyle=orthogonalEdgeStyle;html=1;verticalAlign=bottom;endArrow=open;endSize=8;strokeColor=#ff0000;rounded=0;entryX=0.5;entryY=0;entryDx=0;entryDy=0;" parent="1" source="s-jeWSVwhlc8Lse-MR7u-11" target="s-jeWSVwhlc8Lse-MR7u-3" edge="1">
          <mxGeometry relative="1" as="geometry">
            <mxPoint x="440" y="380" as="targetPoint" />
          </mxGeometry>
        </mxCell>
        <mxCell id="s-jeWSVwhlc8Lse-MR7u-14" value="trois tentative?" style="rhombus;whiteSpace=wrap;html=1;fillColor=#ffffc0;strokeColor=#ff0000;" parent="1" vertex="1">
          <mxGeometry x="600" y="280" width="90" height="70" as="geometry" />
        </mxCell>
        <mxCell id="s-jeWSVwhlc8Lse-MR7u-15" value="no" style="edgeStyle=orthogonalEdgeStyle;html=1;align=left;verticalAlign=bottom;endArrow=open;endSize=8;strokeColor=#ff0000;rounded=0;entryX=1;entryY=0.5;entryDx=0;entryDy=0;" parent="1" source="s-jeWSVwhlc8Lse-MR7u-14" target="s-jeWSVwhlc8Lse-MR7u-6" edge="1">
          <mxGeometry x="-1" y="-15" relative="1" as="geometry">
            <mxPoint x="780" y="300" as="targetPoint" />
            <mxPoint as="offset" />
          </mxGeometry>
        </mxCell>
        <mxCell id="s-jeWSVwhlc8Lse-MR7u-16" value="yes" style="edgeStyle=orthogonalEdgeStyle;html=1;align=left;verticalAlign=top;endArrow=open;endSize=8;strokeColor=#ff0000;rounded=0;entryX=0.5;entryY=0;entryDx=0;entryDy=0;" parent="1" source="s-jeWSVwhlc8Lse-MR7u-14" target="s-jeWSVwhlc8Lse-MR7u-17" edge="1">
          <mxGeometry x="-1" relative="1" as="geometry">
            <mxPoint x="740" y="390" as="targetPoint" />
          </mxGeometry>
        </mxCell>
        <mxCell id="s-jeWSVwhlc8Lse-MR7u-17" value="retenir la carte" style="rounded=1;whiteSpace=wrap;html=1;arcSize=40;fontColor=#000000;fillColor=#ffffc0;strokeColor=#ff0000;" parent="1" vertex="1">
          <mxGeometry x="680" y="400" width="120" height="40" as="geometry" />
        </mxCell>
        <mxCell id="s-jeWSVwhlc8Lse-MR7u-18" value="" style="edgeStyle=orthogonalEdgeStyle;html=1;verticalAlign=bottom;endArrow=open;endSize=8;strokeColor=#ff0000;rounded=0;entryX=0.5;entryY=0;entryDx=0;entryDy=0;" parent="1" source="s-jeWSVwhlc8Lse-MR7u-17" target="s-jeWSVwhlc8Lse-MR7u-19" edge="1">
          <mxGeometry relative="1" as="geometry">
            <mxPoint x="750" y="510" as="targetPoint" />
          </mxGeometry>
        </mxCell>
        <mxCell id="s-jeWSVwhlc8Lse-MR7u-19" value="" style="ellipse;html=1;shape=endState;fillColor=#000000;strokeColor=#ff0000;" parent="1" vertex="1">
          <mxGeometry x="750" y="520" width="30" height="30" as="geometry" />
        </mxCell>
        <mxCell id="s-jeWSVwhlc8Lse-MR7u-20" value="Entrer la somme d&#39;argent a retirer(ar)" style="rounded=1;whiteSpace=wrap;html=1;arcSize=40;fontColor=#000000;fillColor=#ffffc0;strokeColor=#ff0000;" parent="1" vertex="1">
          <mxGeometry x="160" y="515" width="120" height="40" as="geometry" />
        </mxCell>
        <mxCell id="s-jeWSVwhlc8Lse-MR7u-21" value="" style="edgeStyle=orthogonalEdgeStyle;html=1;verticalAlign=bottom;endArrow=open;endSize=8;strokeColor=#ff0000;rounded=0;entryX=0.5;entryY=0;entryDx=0;entryDy=0;" parent="1" source="s-jeWSVwhlc8Lse-MR7u-20" target="s-jeWSVwhlc8Lse-MR7u-22" edge="1">
          <mxGeometry relative="1" as="geometry">
            <mxPoint x="240" y="620" as="targetPoint" />
          </mxGeometry>
        </mxCell>
        <mxCell id="s-jeWSVwhlc8Lse-MR7u-22" value="argent retirer &lt;br&gt;&amp;lt;=&lt;br&gt;argent compte" style="rhombus;whiteSpace=wrap;html=1;fillColor=#ffffc0;strokeColor=#ff0000;" parent="1" vertex="1">
          <mxGeometry x="200" y="660" width="110" height="90" as="geometry" />
        </mxCell>
        <mxCell id="s-jeWSVwhlc8Lse-MR7u-23" value="no" style="edgeStyle=orthogonalEdgeStyle;html=1;align=left;verticalAlign=bottom;endArrow=open;endSize=8;strokeColor=#ff0000;rounded=0;entryX=0;entryY=0.5;entryDx=0;entryDy=0;" parent="1" source="s-jeWSVwhlc8Lse-MR7u-22" target="s-jeWSVwhlc8Lse-MR7u-20" edge="1">
          <mxGeometry x="-1" relative="1" as="geometry">
            <mxPoint x="80" y="650" as="targetPoint" />
            <Array as="points">
              <mxPoint x="150" y="705" />
              <mxPoint x="150" y="535" />
            </Array>
          </mxGeometry>
        </mxCell>
        <mxCell id="s-jeWSVwhlc8Lse-MR7u-24" value="yes" style="edgeStyle=orthogonalEdgeStyle;html=1;align=left;verticalAlign=top;endArrow=open;endSize=8;strokeColor=#ff0000;rounded=0;entryX=0.5;entryY=0;entryDx=0;entryDy=0;" parent="1" source="s-jeWSVwhlc8Lse-MR7u-22" target="s-jeWSVwhlc8Lse-MR7u-26" edge="1">
          <mxGeometry x="-1" relative="1" as="geometry">
            <mxPoint x="510" y="640" as="targetPoint" />
          </mxGeometry>
        </mxCell>
        <mxCell id="s-jeWSVwhlc8Lse-MR7u-26" value="afficher&amp;nbsp; des infos sur la demande&amp;nbsp;" style="rounded=1;whiteSpace=wrap;html=1;arcSize=40;fontColor=#000000;fillColor=#ffffc0;strokeColor=#ff0000;" parent="1" vertex="1">
          <mxGeometry x="380" y="800" width="120" height="40" as="geometry" />
        </mxCell>
        <mxCell id="s-jeWSVwhlc8Lse-MR7u-27" value="" style="edgeStyle=orthogonalEdgeStyle;html=1;verticalAlign=bottom;endArrow=open;endSize=8;strokeColor=#ff0000;rounded=0;entryX=0.5;entryY=0;entryDx=0;entryDy=0;" parent="1" source="s-jeWSVwhlc8Lse-MR7u-26" target="s-jeWSVwhlc8Lse-MR7u-32" edge="1">
          <mxGeometry relative="1" as="geometry">
            <mxPoint x="440" y="910" as="targetPoint" />
          </mxGeometry>
        </mxCell>
        <mxCell id="s-jeWSVwhlc8Lse-MR7u-32" value="valider la demande" style="rhombus;whiteSpace=wrap;html=1;fillColor=#ffffc0;strokeColor=#ff0000;" parent="1" vertex="1">
          <mxGeometry x="395" y="910" width="90" height="60" as="geometry" />
        </mxCell>
        <mxCell id="s-jeWSVwhlc8Lse-MR7u-33" value="no" style="edgeStyle=orthogonalEdgeStyle;html=1;align=left;verticalAlign=bottom;endArrow=open;endSize=8;strokeColor=#ff0000;rounded=0;entryX=1;entryY=0.5;entryDx=0;entryDy=0;" parent="1" source="s-jeWSVwhlc8Lse-MR7u-32" target="s-jeWSVwhlc8Lse-MR7u-20" edge="1">
          <mxGeometry x="-1" relative="1" as="geometry">
            <mxPoint x="540" y="940" as="targetPoint" />
            <Array as="points">
              <mxPoint x="630" y="940" />
              <mxPoint x="630" y="535" />
            </Array>
          </mxGeometry>
        </mxCell>
        <mxCell id="s-jeWSVwhlc8Lse-MR7u-34" value="yes" style="edgeStyle=orthogonalEdgeStyle;html=1;align=left;verticalAlign=top;endArrow=open;endSize=8;strokeColor=#ff0000;rounded=0;entryX=0.5;entryY=0;entryDx=0;entryDy=0;" parent="1" source="s-jeWSVwhlc8Lse-MR7u-32" target="s-jeWSVwhlc8Lse-MR7u-35" edge="1">
          <mxGeometry x="-1" relative="1" as="geometry">
            <mxPoint x="440" y="1060" as="targetPoint" />
          </mxGeometry>
        </mxCell>
        <mxCell id="s-jeWSVwhlc8Lse-MR7u-35" value="fournir l&#39;argent au client" style="rounded=1;whiteSpace=wrap;html=1;arcSize=40;fontColor=#000000;fillColor=#ffffc0;strokeColor=#ff0000;" parent="1" vertex="1">
          <mxGeometry x="380" y="1060" width="120" height="40" as="geometry" />
        </mxCell>
        <mxCell id="s-jeWSVwhlc8Lse-MR7u-36" value="" style="edgeStyle=orthogonalEdgeStyle;html=1;verticalAlign=bottom;endArrow=open;endSize=8;strokeColor=#ff0000;rounded=0;entryX=0.5;entryY=0;entryDx=0;entryDy=0;" parent="1" source="s-jeWSVwhlc8Lse-MR7u-35" target="s-jeWSVwhlc8Lse-MR7u-38" edge="1">
          <mxGeometry relative="1" as="geometry">
            <mxPoint x="460" y="1160" as="targetPoint" />
          </mxGeometry>
        </mxCell>
        <mxCell id="s-jeWSVwhlc8Lse-MR7u-38" value="continuer?" style="rhombus;whiteSpace=wrap;html=1;fillColor=#ffffc0;strokeColor=#ff0000;" parent="1" vertex="1">
          <mxGeometry x="420" y="1169" width="80" height="40" as="geometry" />
        </mxCell>
        <mxCell id="s-jeWSVwhlc8Lse-MR7u-39" value="no" style="edgeStyle=orthogonalEdgeStyle;html=1;align=left;verticalAlign=bottom;endArrow=open;endSize=8;strokeColor=#ff0000;rounded=0;entryX=0.5;entryY=0;entryDx=0;entryDy=0;" parent="1" source="s-jeWSVwhlc8Lse-MR7u-38" target="Bfe7uunOusQMiMKEhqr5-1" edge="1">
          <mxGeometry x="-1" relative="1" as="geometry">
            <mxPoint x="460" y="1261" as="targetPoint" />
            <Array as="points">
              <mxPoint x="620" y="1189" />
              <mxPoint x="620" y="1240" />
              <mxPoint x="370" y="1240" />
            </Array>
          </mxGeometry>
        </mxCell>
        <mxCell id="s-jeWSVwhlc8Lse-MR7u-40" value="yes" style="edgeStyle=orthogonalEdgeStyle;html=1;align=left;verticalAlign=top;endArrow=open;endSize=8;strokeColor=#ff0000;rounded=0;entryX=0.25;entryY=0;entryDx=0;entryDy=0;" parent="1" source="s-jeWSVwhlc8Lse-MR7u-38" target="s-jeWSVwhlc8Lse-MR7u-20" edge="1">
          <mxGeometry x="-1" relative="1" as="geometry">
            <mxPoint x="430" y="1250" as="targetPoint" />
            <Array as="points">
              <mxPoint x="80" y="1189" />
              <mxPoint x="80" y="470" />
              <mxPoint x="170" y="470" />
              <mxPoint x="170" y="480" />
              <mxPoint x="190" y="480" />
            </Array>
          </mxGeometry>
        </mxCell>
        <mxCell id="Bfe7uunOusQMiMKEhqr5-1" value="Ejecter la carte" style="rounded=1;whiteSpace=wrap;html=1;arcSize=40;fontColor=#000000;fillColor=#ffffc0;strokeColor=#ff0000;" vertex="1" parent="1">
          <mxGeometry x="310" y="1290" width="120" height="40" as="geometry" />
        </mxCell>
        <mxCell id="Bfe7uunOusQMiMKEhqr5-2" value="" style="edgeStyle=orthogonalEdgeStyle;html=1;verticalAlign=bottom;endArrow=open;endSize=8;strokeColor=#ff0000;rounded=0;" edge="1" source="Bfe7uunOusQMiMKEhqr5-1" parent="1">
          <mxGeometry relative="1" as="geometry">
            <mxPoint x="370" y="1390" as="targetPoint" />
          </mxGeometry>
        </mxCell>
        <mxCell id="Bfe7uunOusQMiMKEhqr5-3" value="" style="ellipse;html=1;shape=endState;fillColor=#000000;strokeColor=#ff0000;" vertex="1" parent="1">
          <mxGeometry x="355" y="1390" width="30" height="30" as="geometry" />
        </mxCell>
      </root>
    </mxGraphModel>
  </diagram>
</mxfile>
